<svg data-v-423bf9ae="" xmlns="http://www.w3.org/2000/svg" viewBox="0 0 422.855683052885 60" class="font"><!----><!----><!----><g data-v-423bf9ae="" id="705adb42-b379-4d43-aef4-1e6de45c4c30" fill="black" transform="matrix(4.8498838108798035,0,0,4.8498838108798035,-3.9284114238988366,-2.1270127166834456)"><path d="M10.33 8.57C10.21 8.62 10.09 8.64 10.01 8.64C9.73 8.64 9.60 8.44 9.60 8.05L9.60 7.50L9.60 1.44C9.60 0.88 8.11 0.94 7.98 1.26C7.28 2.86 6.40 4.44 5.21 5.96C3.99 4.44 3.15 2.86 2.44 1.26C2.31 0.94 0.81 0.88 0.81 1.44L0.81 9.63C0.81 10.19 2.45 10.19 2.45 9.63L2.45 4.54C3.33 6.12 4.34 7.57 4.87 7.94C5.07 8.05 5.35 8.05 5.53 7.94C6.08 7.57 7.08 6.10 7.97 4.52L7.97 7.27L7.97 8.29C7.97 9.66 8.54 10.11 9.28 10.11C9.60 10.11 9.98 10.01 10.33 9.87C10.93 9.60 10.91 8.29 10.33 8.57ZM16.20 3.82C15.68 5.26 15.06 6.72 14.38 8.11C13.47 6.59 12.88 5.38 12.39 3.84C12.18 3.21 10.43 3.22 10.65 3.84C11.35 5.81 12.31 7.64 13.61 9.60C13.45 9.90 13.30 10.18 13.15 10.46C12.75 11.14 12.40 11.42 12.01 11.42C11.83 11.42 11.63 11.37 11.42 11.24C10.85 10.92 10.72 12.26 11.21 12.53C11.58 12.71 11.94 12.81 12.31 12.81C13.03 12.81 13.75 12.40 14.38 11.33C15.85 8.82 17.04 6.34 17.92 3.82C18.13 3.23 16.39 3.22 16.20 3.82ZM23.60 3.56C23.60 2.79 24.16 2.37 25.07 2.37C25.79 2.37 26.73 2.62 27.79 3.16C28.34 3.44 28.25 1.93 27.76 1.69C26.91 1.25 25.97 1.02 25.09 1.02C23.41 1.02 21.98 1.88 21.98 3.68C21.98 5.52 23.46 5.82 24.77 6.10C25.82 6.31 26.75 6.51 26.75 7.43C26.75 8.20 26.12 8.64 25.13 8.64C24.40 8.64 23.46 8.40 22.44 7.88C21.87 7.59 21.95 9.14 22.47 9.38C23.34 9.81 24.30 10.05 25.20 10.05C26.94 10.05 28.41 9.20 28.41 7.41C28.41 5.39 26.88 5.08 25.55 4.83C24.51 4.63 23.60 4.47 23.60 3.56ZM40.40 8.57C40.28 8.62 40.18 8.64 40.08 8.64C39.80 8.64 39.66 8.44 39.66 8.04L39.66 7.63L39.66 5.73C39.66 4.26 38.85 3.37 37.52 3.37C36.62 3.37 35.80 3.75 35.18 4.52C34.85 3.79 34.19 3.37 33.28 3.37C32.45 3.37 31.70 3.70 31.09 4.34L30.87 3.67C30.73 3.28 29.50 3.23 29.50 3.77L29.50 9.63C29.50 10.19 31.14 10.19 31.14 9.63L31.14 5.73C31.64 5.07 32.14 4.82 32.59 4.82C33.38 4.82 33.77 5.28 33.77 6.30L33.77 9.63C33.77 10.19 35.41 10.19 35.41 9.63L35.41 5.73L35.41 5.70C35.90 5.05 36.39 4.82 36.83 4.82C37.60 4.82 38.02 5.28 38.02 6.30L38.02 7.20L38.02 8.29C38.02 9.66 38.60 10.11 39.33 10.11C39.66 10.11 40.03 10.01 40.40 9.87C40.99 9.62 40.96 8.29 40.40 8.57ZM48.40 8.48C48.29 8.53 48.19 8.54 48.09 8.54C47.82 8.54 47.68 8.33 47.68 7.76L47.68 6.03C47.68 4.05 46.59 3.37 44.88 3.37C43.47 3.37 42.64 3.65 42.06 4.14C41.59 4.51 41.69 5.56 42.17 5.26C42.74 4.93 43.51 4.69 44.38 4.69C45.56 4.69 46.05 5.08 46.05 6.24L46.05 6.31C45.61 6.09 44.97 5.95 44.07 5.95C42.57 5.95 41.61 6.76 41.61 8.01C41.61 9.25 42.52 10.05 43.92 10.05C45.00 10.05 45.75 9.66 46.21 9.24C46.44 9.81 46.86 10.02 47.35 10.02C47.68 10.02 48.05 9.93 48.40 9.79C49 9.53 49 8.26 48.40 8.48ZM44.37 8.75C43.55 8.75 43.26 8.37 43.26 7.97C43.26 7.55 43.58 7.15 44.45 7.15C45.26 7.15 45.79 7.29 46.05 7.48L46.05 8.04C45.79 8.34 45.23 8.75 44.37 8.75ZM52.74 8.48C52.47 8.57 52.25 8.62 52.08 8.62C51.70 8.62 51.55 8.36 51.55 7.76L51.55 0.71C51.55 0.04 49.91 0.74 49.91 1.41L49.91 8.15C49.91 9.56 50.60 10.05 51.46 10.05C51.87 10.05 52.30 9.94 52.74 9.79C53.34 9.52 53.33 8.26 52.74 8.48ZM57.41 8.48C57.15 8.57 56.92 8.62 56.76 8.62C56.38 8.62 56.22 8.36 56.22 7.76L56.22 0.71C56.22 0.04 54.59 0.74 54.59 1.41L54.59 8.15C54.59 9.56 55.27 10.05 56.14 10.05C56.55 10.05 56.98 9.94 57.41 9.79C58.02 9.52 58.00 8.26 57.41 8.48ZM62.06 5.56C62.06 8.61 63.74 10.05 66.12 10.05C67.23 10.05 68.18 9.72 68.59 9.42C69.01 9.14 68.98 7.78 68.47 8.08C68.05 8.32 67.14 8.61 66.33 8.61C64.96 8.61 63.78 7.70 63.78 5.56C63.78 3.39 64.96 2.48 66.33 2.48C67.14 2.48 68.05 2.77 68.47 3.02C68.98 3.32 69.01 1.97 68.59 1.68C68.18 1.37 67.23 1.04 66.12 1.04C63.74 1.04 62.06 2.48 62.06 5.56ZM76.08 8.44C75.94 8.50 75.81 8.53 75.68 8.53C75.19 8.53 74.86 8.05 74.52 7.56C74.35 7.31 74.19 7.04 73.99 6.78C75.87 6.68 76.82 5.75 76.82 3.86C76.82 2.04 75.43 1.04 73.07 1.04C71.19 1.04 70.27 1.43 70.27 1.78L70.27 9.63C70.27 10.19 71.90 10.19 71.90 9.63L71.90 6.76C72.56 7.13 73.00 7.83 73.40 8.47C73.91 9.31 74.40 10.14 75.28 10.14C75.52 10.14 75.78 10.07 76.09 9.95C76.62 9.76 76.62 8.23 76.08 8.44ZM73.22 2.45C74.49 2.45 75.15 2.98 75.15 3.99C75.15 4.94 74.70 5.60 73.33 5.60C72.94 5.60 72.46 5.54 71.90 5.43L71.90 2.65C72.31 2.52 72.77 2.45 73.22 2.45ZM87.56 8.57C87.43 8.62 87.32 8.64 87.23 8.64C86.95 8.64 86.83 8.44 86.83 8.05L86.83 7.50L86.83 1.44C86.83 0.88 85.33 0.94 85.20 1.26C84.50 2.86 83.62 4.44 82.43 5.96C81.21 4.44 80.37 2.86 79.66 1.26C79.53 0.94 78.04 0.88 78.04 1.44L78.04 9.63C78.04 10.19 79.67 10.19 79.67 9.63L79.67 4.54C80.56 6.12 81.56 7.57 82.10 7.94C82.29 8.05 82.57 8.05 82.75 7.94C83.30 7.57 84.31 6.10 85.19 4.52L85.19 7.27L85.19 8.29C85.19 9.66 85.76 10.11 86.51 10.11C86.83 10.11 87.21 10.01 87.56 9.87C88.16 9.60 88.13 8.29 87.56 8.57Z"></path></g><!----><!----></svg>